<svg xmlns="http://www.w3.org/2000/svg" viewBox="0 0 512 512"><path fill="#fff" d="M328.406 103.499c-33.899 0-50.483 20.52-61.458 34.098-3.318 4.105-8.871 10.976-10.95 10.976-2.079 0-7.632-6.871-10.95-10.976-10.975-13.578-27.559-34.098-61.458-34.098-44.163 0-80.092 33.612-80.092 74.927 0 20.069 2.417 37.094 33.688 73.581 12.064 14.077 18.266 42.169 23.738 66.955 3.632 16.45 7.062 31.988 12.068 43.997 6.787 16.285 16.423 24.541 28.64 24.541 24.808 0 33.748-29.794 41.637-56.08 2.554-8.509 4.966-16.545 7.64-22.747 2.529-5.866 4.351-7.841 5.09-8.456.739.615 2.561 2.59 5.09 8.456 2.674 6.202 5.086 14.239 7.64 22.747 7.889 26.287 16.829 56.08 41.637 56.08 12.217 0 21.854-8.257 28.639-24.541 5.004-12.009 8.435-27.547 12.067-43.998 5.471-24.785 11.674-52.877 23.738-66.954 31.272-36.487 33.688-53.512 33.688-73.581 0-41.315-35.929-74.927-80.092-74.927zm31.221 135.494c-15.327 17.883-21.811 47.254-28.082 75.657-4.925 22.304-11.669 52.85-21.179 52.85-9.927 0-17.183-24.176-22.481-41.828-7.043-23.468-13.696-45.635-31.885-45.635s-24.842 22.167-31.885 45.636c-5.297 17.652-12.553 41.828-22.481 41.828-9.51 0-16.254-30.546-21.178-52.85-6.271-28.404-12.756-57.775-28.083-75.658-28.873-33.69-28.873-46.145-28.873-60.566 0-30.287 26.957-54.927 60.092-54.927 24.348 0 35.799 14.169 45.903 26.669 7.65 9.465 14.875 18.404 26.505 18.404s18.856-8.94 26.505-18.404c10.103-12.5 21.554-26.669 45.903-26.669 33.135 0 60.092 24.64 60.092 54.927 0 14.421 0 26.877-28.873 60.566z"/><path fill="#fff" d="M351.902 182.595c-5.522 0-10 4.477-10 10 0 8.466 0 15.778-17.519 36.218-6.107 7.124-10.646 17.263-14.72 32.873-1.395 5.344 1.806 10.806 7.15 12.201a9.966 9.966 0 0 0 2.532.327c4.44 0 8.495-2.98 9.67-7.477 2.03-7.775 5.33-18.815 10.554-24.909 20.731-24.188 22.333-35.663 22.333-49.233 0-5.523-4.478-10-10-10zm-36.475 99.006c-5.368-1.301-10.774 1.995-12.075 7.363l-.043.182c-1.306 5.363 1.981 10.771 7.343 12.081.798.195 1.595.288 2.381.288 4.502 0 8.591-3.061 9.706-7.63l.05-.209c1.301-5.367-1.995-10.774-7.362-12.075z"/><path fill="#fff" d="M359.511 30.694c-38.918 0-75.286 15.232-103.511 43.121-28.225-27.89-64.593-43.121-103.511-43.121C68.406 30.694 0 103.529 0 193.055c0 29.083 13.124 62.384 39.007 98.977 20.425 28.876 48.651 59.746 83.895 91.752 35.056 31.836 68.319 56.733 85.027 68.741 13.963 10.035 23.8 16.483 29.594 20.125 12.81 8.053 15.632 8.656 18.477 8.656 2.845 0 5.667-.602 18.476-8.656 5.794-3.642 15.631-10.09 29.594-20.125 16.708-12.008 49.97-36.905 85.027-68.741 35.245-32.006 63.47-62.876 83.895-91.752C498.876 255.439 512 222.138 512 193.055c0-89.526-68.406-162.361-152.489-162.361zm20.45 334.343C324.963 415.69 269.766 452.842 256 460.427c-13.766-7.585-68.963-44.737-123.961-95.39C80.927 317.964 20 249.915 20 193.055c0-78.498 59.435-142.361 132.489-142.361 36.646 0 70.747 15.729 96.024 44.29a9.996 9.996 0 0 0 14.976 0c25.275-28.561 59.376-44.29 96.022-44.29C432.565 50.694 492 114.557 492 193.055c0 56.86-60.927 124.909-112.039 171.982z"/><path fill="#fff" d="M51 193.507c-5.522 0-10 4.516-10 10.039s4.478 10 10 10 10-4.477 10-10v-.078c0-5.523-4.478-9.961-10-9.961zM169.742 66.578c-58.724 0-109.984 42.192-124.655 102.605-1.303 5.367 1.991 10.774 7.357 12.078.794.193 1.587.285 2.368.285 4.506 0 8.598-3.069 9.71-7.643 12.487-51.416 55.754-87.325 105.22-87.325 5.522 0 10-4.477 10-10s-4.478-10-10-10z"/></svg>