<svg xmlns="http://www.w3.org/2000/svg" viewBox="0 0 512.001 512.001"><path fill="#2EC0F9" d="M502 0H394.156c-5.523 0-10 4.477-10 10v103.703l-80.7 80.699-17.962-17.962c-3.905-3.904-10.237-3.904-14.143 0L120.255 327.537c-3.905 3.905-3.905 10.237 0 14.143l3.124 3.124-120.45 120.45c-3.905 3.905-3.905 10.237 0 14.143l29.675 29.675a9.968 9.968 0 0 0 7.071 2.929 9.97 9.97 0 0 0 7.071-2.929l120.45-120.45 3.124 3.124c1.953 1.953 4.512 2.929 7.071 2.929s5.119-.976 7.071-2.929L335.56 240.649c3.905-3.905 3.905-10.237 0-14.143l-17.962-17.962 83.629-83.629a10.001 10.001 0 0 0 2.929-7.071V20H502c5.523 0 10-4.477 10-10s-4.477-10-10-10zM39.675 487.858l-15.533-15.533 113.354-113.354 15.533 15.533L39.675 487.858zm137.717-117.326l-35.924-35.924 112.604-112.604 17.962 17.962c1.953 1.953 4.512 2.929 7.071 2.929s5.119-.976 7.071-2.929c3.905-3.905 3.905-10.237 0-14.143l-17.962-17.962 10.208-10.208 17.943 17.943a.36.36 0 0 0 .018.02l.02.018 17.943 17.943-136.954 136.955z"/></svg>