<svg xmlns="http://www.w3.org/2000/svg" xmlns:xlink="http://www.w3.org/1999/xlink" id="Layer_1" x="0" y="0" version="1.1" viewBox="0 0 512 512" xml:space="preserve" style="enable-background:new 0 0 512 512"><g><g><circle cx="253.77" cy="102.34" r="14.77" fill="#fff"/></g></g><g><g><path fill="#fff" d="M438.373,380.808L328.312,330.96c29.479-22.036,48.937-56.776,50.166-96.035c6.572-2.351,12.577-6.183,17.588-11.31 c8.554-8.75,13.264-20.31,13.264-32.548c0-12.238-4.71-23.798-13.264-32.548c-4.995-5.111-10.978-8.934-17.526-11.287V84.346 h-0.316v-8.298C378.223,34.115,344.107,0,302.175,0h-97.124c-41.933,0-76.048,34.115-76.048,76.048v31.295h0.002v39.89 c-6.549,2.353-12.531,6.176-17.526,11.287c-8.554,8.75-13.264,20.31-13.264,32.548c0,12.238,4.71,23.798,13.264,32.548 c5.011,5.127,11.016,8.959,17.588,11.31c1.252,40.009,21.433,75.327,51.86,97.286l-14.466,6.552l-30.33,13.736v0.001 l-62.504,28.308c-26.04,11.795-42.866,37.887-42.866,66.473V512h30v-64.72c0-16.834,9.909-32.199,25.243-39.145l42.559-19.275 l-15.166,72.865L179.267,512h76.365l-31.561-79.559h63.826L256.336,512h76.365l65.87-50.274l-15.169-72.881l42.594,19.292 c15.334,6.945,25.243,22.311,25.243,39.145V512h30v-64.72C481.239,418.694,464.413,392.603,438.373,380.808z M348.539,123.382 v13.601c-11.638-6.098-19.047-14.899-23.635-22.637h23.319v9.036H348.539z M205.051,30h97.124 c25.391,0,46.048,20.657,46.048,46.048v8.298h-32.035c-7.826-27.096-32.835-46.977-62.417-46.977 c-29.582,0-54.592,19.88-62.418,46.977h-32.349v-8.298h-0.001C159.003,50.657,179.66,30,205.051,30z M288.698,104.129 c-0.933,18.457-16.242,33.187-34.927,33.187c-19.284,0-34.974-15.688-34.974-34.973c0-19.285,15.689-34.974,34.974-34.974 c19.285,0,34.973,15.689,34.973,34.974c0,0.415-0.017,0.826-0.031,1.238l-0.124,0.024 C288.606,103.697,288.644,103.88,288.698,104.129z M182.001,114.346c-4.652,7.518-11.948,16.191-22.996,22.56v-22.56H182.001z M159.005,230.974v-22.985l-14.635-0.356c-8.908-0.218-16.155-7.648-16.155-16.564c0-8.916,7.247-16.347,16.155-16.564 l14.635-0.356v-4.253c19.268-6.899,32.629-18.579,41.72-30.103c11.779,16.634,31.159,27.524,53.046,27.524 c21.645,0,40.838-10.649,52.652-26.972c9.071,11.476,22.493,22.774,42.116,29.127v4.676l14.635,0.356 c8.908,0.218,16.155,7.648,16.155,16.564s-7.247,16.347-16.155,16.564l-14.635,0.356v22.985c0,52.258-42.515,94.772-94.772,94.772 C201.515,325.746,159.005,283.231,159.005,230.974z M189.407,482l-42.79-32.659l15.777-75.803l5.116-2.317L211.456,482H189.407z M212.17,402.441L212.17,402.441l-17.301-43.612l20.307-9.197c12.157,3.964,25.127,6.114,38.59,6.114 c15.177,0,29.727-2.732,43.193-7.717l-0.625,1.381l20.77,9.407l-17.306,43.624H212.17z M322.56,482h-22.049l43.945-110.779 l5.116,2.317l15.777,75.803L322.56,482z"/></g></g></svg>