<?xml version="1.0" encoding="iso-8859-1"?>
<!-- Generator: Adobe Illustrator 19.0.0, SVG Export Plug-In . SVG Version: 6.00 Build 0)  -->
<svg xmlns="http://www.w3.org/2000/svg" xmlns:xlink="http://www.w3.org/1999/xlink" version="1.1" id="Layer_1" x="0px" y="0px" viewBox="0 0 512 512" style="enable-background:new 0 0 512 512;" xml:space="preserve">
<g>
	<g>
		<path fill="#2EC0F9" d="M328.406,103.499c-33.899,0-50.483,20.52-61.458,34.098c-3.318,4.105-8.871,10.976-10.95,10.976    c-2.079,0-7.632-6.871-10.95-10.976c-10.975-13.578-27.559-34.098-61.458-34.098c-44.163,0-80.092,33.612-80.092,74.927    c0,20.069,2.417,37.094,33.688,73.581c12.064,14.077,18.266,42.169,23.738,66.955c3.632,16.45,7.062,31.988,12.068,43.997    c6.787,16.285,16.423,24.541,28.64,24.541c24.808,0,33.748-29.794,41.637-56.08c2.554-8.509,4.966-16.545,7.64-22.747    c2.529-5.866,4.351-7.841,5.09-8.456c0.739,0.615,2.561,2.59,5.09,8.456c2.674,6.202,5.086,14.239,7.64,22.747    c7.889,26.287,16.829,56.08,41.637,56.08c12.217,0,21.854-8.257,28.639-24.541c5.004-12.009,8.435-27.547,12.067-43.998    c5.471-24.785,11.674-52.877,23.738-66.954c31.272-36.487,33.688-53.512,33.688-73.581    C408.498,137.111,372.569,103.499,328.406,103.499z M359.627,238.993c-15.327,17.883-21.811,47.254-28.082,75.657    c-4.925,22.304-11.669,52.85-21.179,52.85c-9.927,0-17.183-24.176-22.481-41.828c-7.043-23.468-13.696-45.635-31.885-45.635    c-18.189,0-24.842,22.167-31.885,45.636c-5.297,17.652-12.553,41.828-22.481,41.828c-9.51,0-16.254-30.546-21.178-52.85    c-6.271-28.404-12.756-57.775-28.083-75.658c-28.873-33.69-28.873-46.145-28.873-60.566c0-30.287,26.957-54.927,60.092-54.927    c24.348,0,35.799,14.169,45.903,26.669c7.65,9.465,14.875,18.404,26.505,18.404s18.856-8.94,26.505-18.404    c10.103-12.5,21.554-26.669,45.903-26.669c33.135,0,60.092,24.64,60.092,54.927C388.5,192.848,388.5,205.304,359.627,238.993z"/>
	</g>
</g>
<g>
	<g>
		<path fill="#2EC0F9" d="M351.902,182.595c-5.522,0-10,4.477-10,10c0,8.466,0,15.778-17.519,36.218c-6.107,7.124-10.646,17.263-14.72,32.873    c-1.395,5.344,1.806,10.806,7.15,12.201c0.846,0.222,1.696,0.327,2.532,0.327c4.44,0,8.495-2.98,9.67-7.477    c2.03-7.775,5.33-18.815,10.554-24.909c20.731-24.188,22.333-35.663,22.333-49.233    C361.902,187.072,357.424,182.595,351.902,182.595z"/>
	</g>
</g>
<g>
	<g>
		<path fill="#2EC0F9" d="M315.427,281.601c-5.368-1.301-10.774,1.995-12.075,7.363c-0.002,0.007-0.04,0.168-0.043,0.182    c-1.306,5.363,1.981,10.771,7.343,12.081c0.798,0.195,1.595,0.288,2.381,0.288c4.502,0,8.591-3.061,9.706-7.63l0.05-0.209    C324.09,288.309,320.794,282.902,315.427,281.601z"/>
	</g>
</g>
<g>
	<g>
		<path fill="#2EC0F9" d="M359.511,30.694c-38.918,0-75.286,15.232-103.511,43.121c-28.225-27.89-64.593-43.121-103.511-43.121    C68.406,30.694,0,103.529,0,193.055c0,29.083,13.124,62.384,39.007,98.977c20.425,28.876,48.651,59.746,83.895,91.752    c35.056,31.836,68.319,56.733,85.027,68.741c13.963,10.035,23.8,16.483,29.594,20.125c12.81,8.053,15.632,8.656,18.477,8.656    c2.845,0,5.667-0.602,18.476-8.656c5.794-3.642,15.631-10.09,29.594-20.125c16.708-12.008,49.97-36.905,85.027-68.741    c35.245-32.006,63.47-62.876,83.895-91.752C498.876,255.439,512,222.138,512,193.055C512,103.529,443.594,30.694,359.511,30.694z     M379.961,365.037C324.963,415.69,269.766,452.842,256,460.427c-13.766-7.585-68.963-44.737-123.961-95.39    C80.927,317.964,20,249.915,20,193.055c0-78.498,59.435-142.361,132.489-142.361c36.646,0,70.747,15.729,96.024,44.29    c1.897,2.145,4.624,3.373,7.488,3.373s5.591-1.228,7.488-3.373c25.275-28.561,59.376-44.29,96.022-44.29    C432.565,50.694,492,114.557,492,193.055C492,249.915,431.073,317.964,379.961,365.037z"/>
	</g>
</g>
<g>
	<g>
		<path fill="#2EC0F9" d="M51,193.507c-5.522,0-10,4.516-10,10.039c0,5.523,4.478,10,10,10s10-4.477,10-10v-0.078    C61,197.945,56.522,193.507,51,193.507z"/>
	</g>
</g>
<g>
	<g>
		<path fill="#2EC0F9" d="M169.742,66.578c-58.724,0-109.984,42.192-124.655,102.605c-1.303,5.367,1.991,10.774,7.357,12.078    c0.794,0.193,1.587,0.285,2.368,0.285c4.506,0,8.598-3.069,9.71-7.643c12.487-51.416,55.754-87.325,105.22-87.325    c5.522,0,10-4.477,10-10S175.264,66.578,169.742,66.578z"/>
	</g>
</g>
<g>
</g>
<g>
</g>
<g>
</g>
<g>
</g>
<g>
</g>
<g>
</g>
<g>
</g>
<g>
</g>
<g>
</g>
<g>
</g>
<g>
</g>
<g>
</g>
<g>
</g>
<g>
</g>
<g>
</g>
</svg>
