<svg xmlns="http://www.w3.org/2000/svg" xmlns:xlink="http://www.w3.org/1999/xlink" id="Layer_1" x="0" y="0" version="1.1" viewBox="0 0 512.001 512.001" xml:space="preserve" style="enable-background:new 0 0 512.001 512.001"><g><g><path fill="#2EC0F9" d="M502,0H394.156c-5.523,0-10,4.477-10,10v103.703l-80.7,80.699l-17.962-17.962c-3.905-3.904-10.237-3.904-14.143,0 L120.255,327.537c-3.905,3.905-3.905,10.237,0,14.143l3.124,3.124L2.929,465.254c-3.905,3.905-3.905,10.237,0,14.143 l29.675,29.675c1.953,1.953,4.512,2.929,7.071,2.929c2.559,0,5.119-0.977,7.071-2.929l120.45-120.45l3.124,3.124 c1.953,1.953,4.512,2.929,7.071,2.929s5.119-0.976,7.071-2.929L335.56,240.649c3.905-3.905,3.905-10.237,0-14.143l-17.962-17.962 l83.629-83.629c1.875-1.875,2.929-4.419,2.929-7.071V20H502c5.523,0,10-4.477,10-10S507.523,0,502,0z M39.675,487.858 l-15.533-15.533l113.354-113.354l15.533,15.533L39.675,487.858z M177.392,370.532l-35.924-35.924l112.604-112.604l17.962,17.962 c1.953,1.953,4.512,2.929,7.071,2.929s5.119-0.976,7.071-2.929c3.905-3.905,3.905-10.237,0-14.143l-17.962-17.962l10.208-10.208 l17.943,17.943c0.006,0.007,0.012,0.014,0.018,0.02c0.006,0.006,0.014,0.012,0.02,0.018l17.943,17.943L177.392,370.532z"/></g></g></svg>