<?xml version="1.0" encoding="iso-8859-1"?>
<!-- Generator: Adobe Illustrator 19.0.0, SVG Export Plug-In . SVG Version: 6.00 Build 0)  -->
<svg xmlns="http://www.w3.org/2000/svg" xmlns:xlink="http://www.w3.org/1999/xlink" version="1.1" id="Layer_1" x="0px" y="0px" viewBox="0 0 512 512" style="enable-background:new 0 0 512 512;" xml:space="preserve">
<g>
	<g>
		<path fill="#2EC0F9" d="M87.531,183.528c-0.009-0.012-0.018-0.023-0.027-0.034c-3.423-4.332-9.71-5.069-14.044-1.647s-5.072,9.711-1.649,14.045    c0.027,0.034,0.055,0.068,0.082,0.102c1.975,2.478,4.887,3.768,7.826,3.768c2.185,0,4.385-0.713,6.225-2.181    C90.263,194.138,90.973,187.846,87.531,183.528z"/>
	</g>
</g>
<g>
	<g>
		<path  fill="#2EC0F9" d="M118.447,61.701c-2.054-5.126-7.875-7.616-13.002-5.562C62.59,73.314,40.12,121.15,54.291,165.041    c1.367,4.235,5.291,6.931,9.514,6.931c1.017,0,2.053-0.157,3.073-0.488c5.256-1.696,8.141-7.332,6.444-12.588    c-10.954-33.93,6.424-70.912,39.563-84.193C118.011,72.649,120.501,66.827,118.447,61.701z"/>
	</g>
</g>
<g>
	<g>
		<path fill="#2EC0F9"  d="M474.693,39.423c-24.018-24.573-56.14-38.566-90.449-39.401c-2.69-0.073-5.298,0.957-7.227,2.839    c-1.929,1.882-3.016,4.461-3.017,7.155c-0.02,65.046-52.953,117.965-118,117.965S138.019,75.062,138,10.016    c0-2.693-1.088-5.273-3.016-7.155c-1.929-1.881-4.532-2.902-7.227-2.839C93.448,0.857,61.326,14.85,37.309,39.423    C13.25,64.039,0,96.555,0,130.981c0,35.406,4.029,65.543,56.171,131.218c22.157,27.909,33.105,81.443,42.764,128.675    c6.185,30.245,12.028,58.813,20.378,80.441c3.883,10.058,15.7,40.666,42.835,40.666c17.585,0,31.756-11.381,43.323-34.792    c8.986-18.187,15.427-41.356,21.656-63.763c5.122-18.426,9.961-35.829,15.655-48.411c4.68-10.341,9.375-16.035,13.219-16.035    s8.539,5.695,13.219,16.035c5.694,12.582,10.532,29.986,15.655,48.411c6.229,22.407,12.67,45.576,21.656,63.763    c11.567,23.412,25.738,34.792,43.323,34.792c27.135,0,38.952-30.608,42.836-40.666c8.35-21.628,14.192-50.196,20.378-80.441    c9.659-47.232,20.607-100.766,42.764-128.675C507.971,196.523,512,166.387,512,130.981C512,96.555,498.75,64.039,474.693,39.423z     M440.168,249.763c-25.13,31.653-36.092,85.261-46.695,137.103c-10.568,51.678-21.497,105.115-43.619,105.115    c-22.383,0-35.317-46.526-45.71-83.911c-11.798-42.438-21.987-79.089-48.144-79.089c-26.157,0-36.346,36.651-48.144,79.089    c-10.393,37.385-23.327,83.911-45.71,83.911c-22.122,0-33.051-53.437-43.619-105.115c-10.603-51.842-21.566-105.45-46.695-137.103    C20,184.475,20,158.491,20,130.981c0-56.416,43.318-103.952,98.413-110.282c5.49,71.099,65.11,127.282,137.587,127.282    S388.097,91.797,393.587,20.698C448.682,27.028,492,74.565,492,130.981C492,158.491,492,184.475,440.168,249.763z"/>
	</g>
</g>
<g>
	<g>
		<path fill="#2EC0F9"  d="M358.766,3.895c-2.083-1.923-4.887-2.874-7.708-2.61c-32.837,3.049-51.525,10.768-66.542,16.971    c-10.837,4.477-18.667,7.711-28.517,7.711c-9.85,0-17.68-3.234-28.517-7.711c-15.016-6.202-33.705-13.922-66.542-16.971    c-2.819-0.264-5.625,0.687-7.708,2.61c-2.083,1.923-3.252,4.641-3.215,7.476c0.362,28.023,11.546,54.309,31.492,74.018    c19.966,19.728,46.42,30.592,74.491,30.592c28.071,0,54.525-10.864,74.489-30.592c19.947-19.709,31.131-45.996,31.492-74.018    C362.018,8.536,360.849,5.818,358.766,3.895z M256,95.982c-42.912,0-78.901-31.993-85.061-73.375    c22.739,3.325,37.067,9.244,48.908,14.136c11.985,4.951,22.335,9.226,36.153,9.226c13.818,0,24.168-4.276,36.153-9.226    c11.841-4.891,26.169-10.81,48.908-14.136C334.901,63.989,298.912,95.982,256,95.982z"/>
	</g>
</g>
<g>
</g>
<g>
</g>
<g>
</g>
<g>
</g>
<g>
</g>
<g>
</g>
<g>
</g>
<g>
</g>
<g>
</g>
<g>
</g>
<g>
</g>
<g>
</g>
<g>
</g>
<g>
</g>
<g>
</g>
</svg>
