<svg xmlns="http://www.w3.org/2000/svg" xmlns:xlink="http://www.w3.org/1999/xlink" id="Layer_1" x="0" y="0" version="1.1" viewBox="0 0 512.001 512.001" xml:space="preserve" style="enable-background:new 0 0 512.001 512.001"><g><g><path fill="#2EC0F9" d="M209.348,121.576l-0.009-0.029c-1.599-5.285-7.172-8.242-12.453-6.644c-5.284,1.598-8.264,7.207-6.664,12.491 c1.305,4.317,5.265,7.091,9.552,7.091c0.961,0,1.937-0.139,2.906-0.432C207.963,132.455,210.947,126.861,209.348,121.576z"/></g></g><g><g><path fill="#2EC0F9" d="M251.587,40.982c-34.043,0-62.543,26.578-64.885,60.508c-0.38,5.508,3.777,10.281,9.284,10.661 c0.234,0.016,0.467,0.024,0.698,0.024c5.208,0,9.598-4.035,9.963-9.308c1.62-23.491,21.361-41.892,44.94-41.892 c5.52,0,9.996-4.475,9.996-9.996S257.107,40.982,251.587,40.982z"/></g></g><g><g><path fill="#2EC0F9" d="M202.897,428.58c-5.52,0-9.996,4.475-9.996,9.996v0.119c0,5.521,4.476,9.996,9.996,9.996s9.996-4.475,9.996-9.996v-0.119 C212.893,433.055,208.417,428.58,202.897,428.58z"/></g></g><g><g><path fill="#2EC0F9" d="M416.84,0.159c-40.39,0-60.15,26.393-73.226,43.858c-5.092,6.8-11.428,15.263-14.753,15.263 c-3.326,0-9.661-8.463-14.752-15.263c-13.076-17.465-32.836-43.858-73.226-43.858c-52.471,0-95.16,42.689-95.16,95.16 c0,22.263,2.141,41.445,27.24,76.994c-4.367,0.957-8.658,2.117-12.863,3.473c-0.307,0.084-0.605,0.181-0.897,0.292 c-55.729,18.387-96.065,70.944-96.065,132.753c0,30.669,9.748,59.78,28.191,84.186c1.926,2.55,3.958,5.015,6.054,7.421 l-36.299,36.299l-11.605-11.605c-1.875-1.874-4.417-2.928-7.068-2.928s-5.194,1.054-7.068,2.928L2.928,457.548 C1.054,459.422,0,461.965,0,464.616v37.224c0,5.52,4.475,9.995,9.994,9.996l37.447,0.006h0.002c2.651,0,5.193-1.054,7.068-2.928 l32.308-32.308c1.874-1.874,2.928-4.417,2.928-7.068s-1.054-5.194-2.928-7.068l-11.598-11.597l36.339-36.338 c14.875,12.83,32.378,22.557,51.156,28.185c0.957,0.287,1.923,0.423,2.873,0.423c4.301,0,8.273-2.798,9.571-7.129 c1.584-5.289-1.417-10.86-6.706-12.445c-50.238-15.055-85.323-62.237-85.323-114.739c0-49.189,29.813-91.541,72.315-109.953 c2.177,10.204,4.274,20.449,6.32,30.445c7.885,38.552,15.332,74.967,25.924,102.403c4.795,12.418,19.386,50.21,52.167,50.21 c21.317,0,38.617-14.042,52.89-42.929c9.63-19.49,16.983-43.623,23.824-67.878c3.943,11.859,6.086,24.535,6.086,37.702 c0,52.501-35.087,99.683-85.322,114.739c-5.288,1.584-8.291,7.157-6.705,12.445c1.585,5.288,7.15,8.294,12.445,6.705 c28.196-8.451,53.547-26.103,71.384-49.705c18.443-24.406,28.191-53.517,28.191-84.185c0-19.357-3.958-37.805-11.103-54.582 c1.056,1.416,2.384,3.607,3.925,7.01c3.914,8.648,7.29,20.79,10.864,33.646c9.321,33.529,19.886,71.532,48.585,71.532 c21.127,0,29.995-22.967,32.908-30.514c5.966-15.453,10.101-35.677,14.48-57.089c6.732-32.918,14.363-70.229,29.518-89.319 c37.293-46.974,40.174-68.671,40.174-94.194C512,42.848,469.311,0.159,416.84,0.159z M43.302,491.85l-23.31-0.004v-23.089 l22.419-22.42l11.601,11.601c0.001,0.002,0.003,0.003,0.004,0.005c0.001,0.002,0.003,0.003,0.005,0.005l11.593,11.592 L43.302,491.85z M300.987,252.615c-14.246,51.245-30.392,109.327-61.13,109.327c-30.561,0-44.766-69.456-58.503-136.626 c-2.203-10.769-4.467-21.822-6.834-32.844c9.101-2.219,18.601-3.405,28.375-3.405c42.093,0,79.179,21.832,100.542,54.764 C302.621,246.743,301.805,249.667,300.987,252.615z M456.168,177.082c-18.127,22.832-25.915,60.915-33.447,97.744 c-6.525,31.907-14.645,71.618-27.802,71.618c-13.507,0-22.648-32.883-29.323-56.894c-3.787-13.62-7.362-26.483-11.912-36.535 c-2.384-5.267-9.639-21.296-24.823-21.296c-2.357,0-5.227,0.43-8.287,1.801c-24.872-38.732-68.331-64.444-117.681-64.444 c-2.479,0-4.944,0.067-7.392,0.196c-29.782-39.434-29.786-56.217-29.786-73.952c0-41.447,33.72-75.167,75.167-75.167 c30.383,0,44.641,19.045,57.221,35.848c8.961,11.968,17.424,23.273,30.757,23.273c13.332,0,21.797-11.305,30.757-23.273 c12.58-16.804,26.84-35.848,57.222-35.848c41.447,0,75.167,33.72,75.167,75.167C492.008,114.968,492.008,131.938,456.168,177.082z"/></g></g><g><g><path fill="#2EC0F9" d="M235.975,222.006c-16.538,0-29.992,13.454-29.992,29.991s13.454,29.99,29.992,29.99c16.537,0,29.991-13.454,29.991-29.99 S252.511,222.006,235.975,222.006z M235.975,261.994c-5.514,0-9.999-4.485-9.999-9.998c0-5.513,4.485-9.998,9.999-9.998 c5.513,0,9.998,4.485,9.998,9.998C245.973,257.508,241.488,261.994,235.975,261.994z"/></g></g></svg>