<svg xmlns="http://www.w3.org/2000/svg" xmlns:xlink="http://www.w3.org/1999/xlink" id="Layer_1" x="0" y="0" version="1.1" viewBox="0 0 512 512" xml:space="preserve" style="enable-background:new 0 0 512 512"><g><g><path fill="#2EC0F9" d="M426.717,451.165c-0.454-2.52-4.561-24.545-13.182-46.92c-13.212-34.284-30.194-51.668-50.475-51.668 c-24.618,0-36.362,25.763-47.718,50.68c-10.043,22.034-20.426,44.82-37.233,44.82h-47.306c-42.814,0-55.905-26.727-68.563-52.574 c-9.068-18.513-18.444-37.655-39.63-37.655c-16.386,0-30.588,16.08-43.422,49.159c-8.267,21.308-13.09,42.266-13.506,44.103 c-3.893,15.941-1.009,31.131,8.126,42.783C82.961,505.57,97.065,512,113.52,512h264.016c16.403,0,30.61-6.427,40.004-18.096 C426.894,482.286,430.15,467.114,426.717,451.165z M401.961,481.364c-5.522,6.86-14.197,10.637-24.425,10.637H113.521 c-10.178,0-18.691-3.71-23.971-10.447c-5.28-6.736-6.851-15.887-4.421-25.767c0.016-0.066,0.032-0.133,0.047-0.199 c0.046-0.207,4.724-20.894,12.66-41.347c13.722-35.372,23.684-36.393,24.775-36.393c8.308,0,13.395,9.559,21.669,26.453 c13.183,26.914,31.237,63.775,86.525,63.775h47.305c29.67,0,43.357-30.03,55.433-56.526c8.734-19.161,17.765-38.975,29.519-38.975 c22.261,0,39.255,55.424,43.996,82.261c0.023,0.135,0.05,0.269,0.079,0.403C409.319,465.23,407.482,474.507,401.961,481.364z"/></g></g><g><g><path fill="#2EC0F9" d="M379.586,47.164c-37.862-10.144-62.992,9.612-79.621,22.686c-6.054,4.762-14.335,11.288-17.291,10.497 c-2.94-0.788-6.862-10.584-9.726-17.736c-7.862-19.635-19.744-49.311-57.611-59.456c-49.157-13.172-99.871,16.106-113.044,65.266 c-6.402,23.892-9.148,44.921,13.957,98.196c9.34,21.535,7.134,58.229,5.187,90.603c-1.27,21.096-2.468,41.024-0.761,56.969 c0.839,7.832,3.39,31.662,23.336,37.007c27.039,7.245,46.475-25.704,63.623-54.775c6.06-10.273,11.783-19.975,17.214-26.998 c6.31-8.158,9.315-8.757,9.506-8.794c0.257,0.213,2.5,2.348,3.859,12.375c1.192,8.798,1.298,20.063,1.409,31.988 c0.316,33.749,0.674,72.003,27.712,79.248c2.372,0.636,4.663,0.922,6.864,0.922c16.309,0,27.759-15.697,31.849-21.305 c9.451-12.956,18.377-30.812,27.826-49.717c14.501-29.01,30.936-61.891,49.792-75.871c46.648-34.585,54.785-54.17,61.185-78.062 C458.024,111.049,428.747,60.337,379.586,47.164z M425.534,155.033c-4.898,18.281-9.129,34.068-53.779,67.173 c-22.696,16.828-39.51,50.465-55.77,82.995c-13.411,26.828-29.956,59.932-41.883,59.93c-0.539-0.001-1.071-0.069-1.592-0.208 c-12.359-3.311-12.665-36.144-12.89-60.117c-0.128-13.673-0.249-26.587-1.986-37.134c-0.916-5.567-3.706-22.506-18.092-26.36 c-1.787-0.479-3.519-0.693-5.192-0.693c-11.784,0-20.523,10.656-23.654,14.476c-6.778,8.266-13.341,19.39-20.287,31.167 c-12.181,20.648-28.856,48.93-41.222,45.618c-12.013-3.219-9.671-42.164-7.788-73.457c2.183-36.302,4.44-73.839-6.801-99.76 c-22.116-50.995-17.886-66.782-12.988-85.063c10.319-38.509,50.045-61.441,88.551-51.125c28.197,7.555,36.709,28.815,44.22,47.573 c5.403,13.495,10.507,26.24,23.116,29.619c12.61,3.381,23.401-5.108,34.828-14.093c15.884-12.489,33.883-26.645,62.083-19.09 C412.918,76.802,435.851,116.525,425.534,155.033z"/></g></g><g><g><path fill="#2EC0F9" d="M169.993,133.663l-0.07-0.163c-2.198-5.067-8.069-7.351-13.136-5.154c-5.067,2.197-7.374,8.128-5.177,13.194 c1.625,3.792,5.316,6.063,9.196,6.063c1.313,0,2.65-0.261,3.935-0.81C169.817,144.618,172.169,138.739,169.993,133.663z"/></g></g><g><g><path fill="#2EC0F9" d="M210.118,47.768c-28.789-7.714-58.474,9.431-66.184,38.212c-1.874,6.995-3.442,14.122-2.067,24.37 c0.673,5.023,4.966,8.671,9.898,8.671c0.443,0,0.891-0.029,1.344-0.091c5.474-0.734,9.315-5.767,8.581-11.241 c-0.89-6.632,0.041-10.853,1.563-16.535c4.858-18.13,23.56-28.924,41.69-24.069c5.34,1.431,10.817-1.737,12.247-7.071 C218.619,54.681,215.453,49.197,210.118,47.768z"/></g></g></svg>