<svg xmlns="http://www.w3.org/2000/svg" viewBox="0 0 512 512"><circle fill="#fff" cx="253.77" cy="102.34" r="14.77"/><path fill="#fff" d="M438.373 380.808L328.312 330.96c29.479-22.036 48.937-56.776 50.166-96.035 6.572-2.351 12.577-6.183 17.588-11.31 8.554-8.75 13.264-20.31 13.264-32.548 0-12.238-4.71-23.798-13.264-32.548-4.995-5.111-10.978-8.934-17.526-11.287V84.346h-.316v-8.298C378.223 34.115 344.107 0 302.175 0h-97.124c-41.933 0-76.048 34.115-76.048 76.048v31.295h.002v39.89c-6.549 2.353-12.531 6.176-17.526 11.287-8.554 8.75-13.264 20.31-13.264 32.548 0 12.238 4.71 23.798 13.264 32.548 5.011 5.127 11.016 8.959 17.588 11.31 1.252 40.009 21.433 75.327 51.86 97.286l-14.466 6.552-30.33 13.736v.001l-62.504 28.308c-26.04 11.795-42.866 37.887-42.866 66.473V512h30v-64.72c0-16.834 9.909-32.199 25.243-39.145l42.559-19.275-15.166 72.865L179.267 512h76.365l-31.561-79.559h63.826L256.336 512h76.365l65.87-50.274-15.169-72.881 42.594 19.292c15.334 6.945 25.243 22.311 25.243 39.145V512h30v-64.72c0-28.586-16.826-54.677-42.866-66.472zm-89.834-257.426v13.601c-11.638-6.098-19.047-14.899-23.635-22.637h23.319v9.036h.316zM205.051 30h97.124c25.391 0 46.048 20.657 46.048 46.048v8.298h-32.035c-7.826-27.096-32.835-46.977-62.417-46.977s-54.592 19.88-62.418 46.977h-32.349v-8.298h-.001C159.003 50.657 179.66 30 205.051 30zm83.647 74.129c-.933 18.457-16.242 33.187-34.927 33.187-19.284 0-34.974-15.688-34.974-34.973 0-19.285 15.689-34.974 34.974-34.974 19.285 0 34.973 15.689 34.973 34.974 0 .415-.017.826-.031 1.238l-.124.024c.017.092.055.275.109.524zm-106.697 10.217c-4.652 7.518-11.948 16.191-22.996 22.56v-22.56h22.996zm-22.996 116.628v-22.985l-14.635-.356c-8.908-.218-16.155-7.648-16.155-16.564s7.247-16.347 16.155-16.564l14.635-.356v-4.253c19.268-6.899 32.629-18.579 41.72-30.103 11.779 16.634 31.159 27.524 53.046 27.524 21.645 0 40.838-10.649 52.652-26.972 9.071 11.476 22.493 22.774 42.116 29.127v4.676l14.635.356c8.908.218 16.155 7.648 16.155 16.564s-7.247 16.347-16.155 16.564l-14.635.356v22.985c0 52.258-42.515 94.772-94.772 94.772-52.252.001-94.762-42.514-94.762-94.771zM189.407 482l-42.79-32.659 15.777-75.803 5.116-2.317L211.456 482h-22.049zm22.763-79.559l-17.301-43.612 20.307-9.197a124.275 124.275 0 0 0 38.59 6.114c15.177 0 29.727-2.732 43.193-7.717l-.625 1.381 20.77 9.407-17.306 43.624H212.17zM322.56 482h-22.049l43.945-110.779 5.116 2.317 15.777 75.803L322.56 482z"/></svg>