<svg xmlns="http://www.w3.org/2000/svg" viewBox="0 0 512 512"><path fill="#2EC0F9" d="M87.531 183.528l-.027-.034c-3.423-4.332-9.71-5.069-14.044-1.647s-5.072 9.711-1.649 14.045l.082.102a9.981 9.981 0 0 0 7.826 3.768 9.95 9.95 0 0 0 6.225-2.181c4.319-3.443 5.029-9.735 1.587-14.053zm30.916-121.827c-2.054-5.126-7.875-7.616-13.002-5.562C62.59 73.314 40.12 121.15 54.291 165.041c1.367 4.235 5.291 6.931 9.514 6.931a9.946 9.946 0 0 0 3.073-.488c5.256-1.696 8.141-7.332 6.444-12.588-10.954-33.93 6.424-70.912 39.563-84.193 5.126-2.054 7.616-7.876 5.562-13.002z"/><path fill="#2EC0F9" d="M474.693 39.423C450.675 14.85 418.553.857 384.244.022a9.973 9.973 0 0 0-7.227 2.839A10 10 0 0 0 374 10.016c-.02 65.046-52.953 117.965-118 117.965S138.019 75.062 138 10.016A10 10 0 0 0 127.757.022C93.448.857 61.326 14.85 37.309 39.423 13.25 64.039 0 96.555 0 130.981c0 35.406 4.029 65.543 56.171 131.218 22.157 27.909 33.105 81.443 42.764 128.675 6.185 30.245 12.028 58.813 20.378 80.441 3.883 10.058 15.7 40.666 42.835 40.666 17.585 0 31.756-11.381 43.323-34.792 8.986-18.187 15.427-41.356 21.656-63.763 5.122-18.426 9.961-35.829 15.655-48.411 4.68-10.341 9.375-16.035 13.219-16.035s8.539 5.695 13.219 16.035c5.694 12.582 10.532 29.986 15.655 48.411 6.229 22.407 12.67 45.576 21.656 63.763 11.567 23.412 25.738 34.792 43.323 34.792 27.135 0 38.952-30.608 42.836-40.666 8.35-21.628 14.192-50.196 20.378-80.441 9.659-47.232 20.607-100.766 42.764-128.675C507.971 196.523 512 166.387 512 130.981c0-34.426-13.25-66.942-37.307-91.558zm-34.525 210.34c-25.13 31.653-36.092 85.261-46.695 137.103-10.568 51.678-21.497 105.115-43.619 105.115-22.383 0-35.317-46.526-45.71-83.911-11.798-42.438-21.987-79.089-48.144-79.089s-36.346 36.651-48.144 79.089c-10.393 37.385-23.327 83.911-45.71 83.911-22.122 0-33.051-53.437-43.619-105.115-10.603-51.842-21.566-105.45-46.695-137.103C20 184.475 20 158.491 20 130.981c0-56.416 43.318-103.952 98.413-110.282 5.49 71.099 65.11 127.282 137.587 127.282S388.097 91.797 393.587 20.698C448.682 27.028 492 74.565 492 130.981c0 27.51 0 53.494-51.832 118.782z"/><path fill="#2EC0F9" d="M358.766 3.895a9.997 9.997 0 0 0-7.708-2.61c-32.837 3.049-51.525 10.768-66.542 16.971-10.837 4.477-18.667 7.711-28.517 7.711-9.85 0-17.68-3.234-28.517-7.711-15.016-6.202-33.705-13.922-66.542-16.971a10 10 0 0 0-10.923 10.086c.362 28.023 11.546 54.309 31.492 74.018 19.966 19.728 46.42 30.592 74.491 30.592 28.071 0 54.525-10.864 74.489-30.592 19.947-19.709 31.131-45.996 31.492-74.018a9.998 9.998 0 0 0-3.215-7.476zM256 95.982c-42.912 0-78.901-31.993-85.061-73.375 22.739 3.325 37.067 9.244 48.908 14.136 11.985 4.951 22.335 9.226 36.153 9.226 13.818 0 24.168-4.276 36.153-9.226 11.841-4.891 26.169-10.81 48.908-14.136-6.16 41.382-42.149 73.375-85.061 73.375z"/></svg>