<svg xmlns="http://www.w3.org/2000/svg" viewBox="0 0 512.001 512.001"><path fill="#2EC0F9" d="M209.348 121.576l-.009-.029c-1.599-5.285-7.172-8.242-12.453-6.644-5.284 1.598-8.264 7.207-6.664 12.491 1.305 4.317 5.265 7.091 9.552 7.091.961 0 1.937-.139 2.906-.432 5.283-1.598 8.267-7.192 6.668-12.477zm42.239-80.594c-34.043 0-62.543 26.578-64.885 60.508-.38 5.508 3.777 10.281 9.284 10.661.234.016.467.024.698.024 5.208 0 9.598-4.035 9.963-9.308 1.62-23.491 21.361-41.892 44.94-41.892 5.52 0 9.996-4.475 9.996-9.996s-4.476-9.997-9.996-9.997zm-48.69 387.598c-5.52 0-9.996 4.475-9.996 9.996v.119c0 5.521 4.476 9.996 9.996 9.996s9.996-4.475 9.996-9.996v-.119c0-5.521-4.476-9.996-9.996-9.996z"/><path fill="#2EC0F9" d="M416.84.159c-40.39 0-60.15 26.393-73.226 43.858-5.092 6.8-11.428 15.263-14.753 15.263-3.326 0-9.661-8.463-14.752-15.263C301.033 26.552 281.273.159 240.883.159c-52.471 0-95.16 42.689-95.16 95.16 0 22.263 2.141 41.445 27.24 76.994a138.516 138.516 0 0 0-12.863 3.473 9.79 9.79 0 0 0-.897.292c-55.729 18.387-96.065 70.944-96.065 132.753 0 30.669 9.748 59.78 28.191 84.186a137.297 137.297 0 0 0 6.054 7.421l-36.299 36.299-11.605-11.605a10 10 0 0 0-14.136 0L2.928 457.548A9.997 9.997 0 0 0 0 464.616v37.224c0 5.52 4.475 9.995 9.994 9.996l37.447.006h.002a10 10 0 0 0 7.068-2.928l32.308-32.308a9.997 9.997 0 0 0 0-14.136l-11.598-11.597 36.339-36.338c14.875 12.83 32.378 22.557 51.156 28.185a9.987 9.987 0 0 0 2.873.423c4.301 0 8.273-2.798 9.571-7.129 1.584-5.289-1.417-10.86-6.706-12.445-50.238-15.055-85.323-62.237-85.323-114.739 0-49.189 29.813-91.541 72.315-109.953 2.177 10.204 4.274 20.449 6.32 30.445 7.885 38.552 15.332 74.967 25.924 102.403 4.795 12.418 19.386 50.21 52.167 50.21 21.317 0 38.617-14.042 52.89-42.929 9.63-19.49 16.983-43.623 23.824-67.878a119.294 119.294 0 0 1 6.086 37.702c0 52.501-35.087 99.683-85.322 114.739-5.288 1.584-8.291 7.157-6.705 12.445 1.585 5.288 7.15 8.294 12.445 6.705 28.196-8.451 53.547-26.103 71.384-49.705 18.443-24.406 28.191-53.517 28.191-84.185 0-19.357-3.958-37.805-11.103-54.582 1.056 1.416 2.384 3.607 3.925 7.01 3.914 8.648 7.29 20.79 10.864 33.646 9.321 33.529 19.886 71.532 48.585 71.532 21.127 0 29.995-22.967 32.908-30.514 5.966-15.453 10.101-35.677 14.48-57.089 6.732-32.918 14.363-70.229 29.518-89.319 37.293-46.974 40.174-68.671 40.174-94.194C512 42.848 469.311.159 416.84.159zM43.302 491.85l-23.31-.004v-23.089l22.419-22.42 11.601 11.601.004.005.005.005 11.593 11.592-22.312 22.31zm257.685-239.235c-14.246 51.245-30.392 109.327-61.13 109.327-30.561 0-44.766-69.456-58.503-136.626-2.203-10.769-4.467-21.822-6.834-32.844a119.644 119.644 0 0 1 28.375-3.405c42.093 0 79.179 21.832 100.542 54.764-.816 2.912-1.632 5.836-2.45 8.784zm155.181-75.533c-18.127 22.832-25.915 60.915-33.447 97.744-6.525 31.907-14.645 71.618-27.802 71.618-13.507 0-22.648-32.883-29.323-56.894-3.787-13.62-7.362-26.483-11.912-36.535-2.384-5.267-9.639-21.296-24.823-21.296-2.357 0-5.227.43-8.287 1.801-24.872-38.732-68.331-64.444-117.681-64.444-2.479 0-4.944.067-7.392.196-29.782-39.434-29.786-56.217-29.786-73.952 0-41.447 33.72-75.167 75.167-75.167 30.383 0 44.641 19.045 57.221 35.848 8.961 11.968 17.424 23.273 30.757 23.273 13.332 0 21.797-11.305 30.757-23.273 12.58-16.804 26.84-35.848 57.222-35.848 41.447 0 75.167 33.72 75.167 75.167.002 19.648.002 36.618-35.838 81.762z"/><path fill="#2EC0F9" d="M235.975 222.006c-16.538 0-29.992 13.454-29.992 29.991s13.454 29.99 29.992 29.99c16.537 0 29.991-13.454 29.991-29.99s-13.455-29.991-29.991-29.991zm0 39.988c-5.514 0-9.999-4.485-9.999-9.998 0-5.513 4.485-9.998 9.999-9.998 5.513 0 9.998 4.485 9.998 9.998 0 5.512-4.485 9.998-9.998 9.998z"/></svg>