<svg xmlns="http://www.w3.org/2000/svg" viewBox="0 0 512 512"><path fill="#2EC0F9" d="M82.179 169.546l-.013-.042c-1.586-5.289-7.151-8.251-12.439-6.663-5.29 1.587-8.279 7.203-6.692 12.493 1.298 4.328 5.261 7.11 9.557 7.11.955 0 1.927-.137 2.888-.425 5.29-1.587 8.286-7.183 6.699-12.473zM146.208 58c-46.17 0-84.822 36.044-87.996 82.058-.38 5.51 3.778 10.284 9.288 10.664.234.016.467.024.698.024 5.209 0 9.602-4.038 9.967-9.313C80.619 105.863 110.507 78 146.208 78c5.523 0 10-4.477 10-10s-4.477-10-10-10z"/><path fill="#2EC0F9" d="M381 0c-55.283 0-81.519 35.043-100.675 60.63C271.327 72.648 262.829 84 256 84c-6.829 0-15.327-11.352-24.325-23.37C212.519 35.043 186.283 0 131 0 58.767 0 0 58.767 0 131c0 35.406 4.029 65.542 56.168 131.218 22.157 27.909 33.105 81.443 42.764 128.675 6.186 30.245 12.028 58.813 20.378 80.441 3.883 10.058 15.7 40.666 42.835 40.666 17.585 0 31.756-11.38 43.323-34.792 8.986-18.187 15.427-41.356 21.656-63.763 5.123-18.425 9.961-35.829 15.655-48.411C247.461 354.694 252.156 349 256 349s8.539 5.694 13.219 16.035c5.694 12.582 10.533 29.985 15.655 48.411 6.229 22.407 12.67 45.576 21.656 63.763C318.098 500.62 332.269 512 349.854 512c27.135 0 38.953-30.608 42.836-40.667 8.35-21.628 14.193-50.197 20.378-80.442 2.146-10.493 4.365-21.292 6.712-31.935a1971.5 1971.5 0 0 0 25.78-14.762c34.507-20.135 66.44-45.499 66.44-94.34V131C512 58.767 453.233 0 381 0zm111 249.853c0 36.712-21.626 56.706-56.519 77.066-23.38 13.641-46.759 26.468-56.481 31.757-9.722-5.289-33.101-18.115-56.481-31.757C287.626 306.559 266 286.565 266 249.853V145.647c20.287-5.654 75.708-23.287 113-55.972 37.292 32.686 92.713 50.318 113 55.972v104.206zM386.106 68.958c-1.444-1.441-3.331-2.396-5.332-2.759a10.065 10.065 0 0 0-1.799-.164h-.031a9.994 9.994 0 0 0-7.05 2.924c-40.416 40.35-117.436 59.064-118.205 59.248a10 10 0 0 0-7.689 9.729v111.917c0 48.841 31.933 74.206 66.44 94.34 30.749 17.941 61.478 34.477 61.785 34.642a10.006 10.006 0 0 0 4.735 1.192h.081c1.653 0 3.279-.41 4.735-1.192.122-.065 5.023-2.703 12.793-6.971l-.007.005a4633.958 4633.958 0 0 0-3.088 15.015C382.905 438.562 371.977 492 349.854 492c-22.383 0-35.317-46.526-45.71-83.911C292.346 365.651 282.157 329 256 329s-36.346 36.651-48.144 79.089C197.463 445.474 184.529 492 162.146 492c-22.122 0-33.051-53.437-43.619-105.115-10.603-51.842-21.565-105.45-46.695-137.103C20 184.494 20 158.51 20 131 20 69.794 69.794 20 131 20c45.272 0 67.115 29.175 84.665 52.617C228.273 89.457 239.161 104 256 104s27.727-14.543 40.335-31.383C313.885 49.175 335.728 20 381 20c59.099 0 107.558 46.42 110.824 104.716l1.797.56c-22.672-6.678-76.072-24.926-107.515-56.318z"/><path fill="#2EC0F9" d="M379 134.031c-49.075 0-89 39.925-89 89s39.925 89 89 89 89-39.925 89-89-39.925-89-89-89zm0 158c-38.047 0-69-30.953-69-69s30.953-69 69-69 69 30.953 69 69-30.953 69-69 69z"/><path fill="#2EC0F9" d="M431.59 187.825c-3.9-3.912-10.232-3.922-14.142-.023l-49.418 49.259-27.478-27.389c-3.912-3.899-10.243-3.89-14.142.023-3.899 3.912-3.889 10.243.023 14.142l34.537 34.426c1.952 1.944 4.506 2.917 7.06 2.917s5.108-.973 7.059-2.917l56.478-56.296c3.912-3.899 3.922-10.231.023-14.142z"/></svg>