<svg xmlns="http://www.w3.org/2000/svg" viewBox="0 0 512 512"><path fill="#2EC0F9" d="M256.291 287.987H256c-5.522 0-10 4.477-10 10s4.478 10 10 10h.291c5.523 0 10-4.477 10-10s-4.478-10-10-10z"/><path fill="#2EC0F9" d="M510.537 175.546a9.998 9.998 0 0 0-8.537-4.792c-42.629 0-80.577-16.868-114.059-31.75C362.587 127.733 340.69 118 321.464 118c-31.41 0-54.094 18.482-65.464 30.412C244.63 136.482 221.944 118 190.531 118c-19.374 0-41.924 9.879-68.034 21.319C88.867 154.053 50.75 170.753 10 170.753a10 10 0 0 0-8.891 14.576C50.109 280.524 134.106 394 256 394c132.19 0 208.78-119.091 254.892-208.67a10 10 0 0 0-.355-9.784zm-380.013-17.908C154.575 147.101 175.347 138 190.531 138c34.746 0 57.034 31.31 57.239 31.603a10 10 0 0 0 16.458 0c.22-.316 22.222-31.603 57.236-31.603 14.981 0 35.081 8.934 58.354 19.279 19.69 8.752 42.209 18.755 66.927 25.531-2.455.668-4.938 1.347-7.466 2.038C393.298 197.426 336.074 213.08 256 213.08c-74.27 0-133.298-15.54-180.727-28.027-3.364-.886-6.659-1.752-9.899-2.598 23.774-6.691 45.818-16.347 65.15-24.817zM256 374c-99.514 0-172.917-85.222-220.61-167.592 8.668 5.841 17.95 12.61 27.844 19.83 41.716 30.443 93.634 68.33 158.102 78.906.549.09 1.094.133 1.631.133 4.811 0 9.052-3.481 9.856-8.383.894-5.45-2.799-10.593-8.249-11.487-59.766-9.804-109.549-46.134-149.551-75.325a3270.485 3270.485 0 0 0-9.499-6.913l4.656 1.225c48.546 12.78 108.962 28.686 185.82 28.686 82.761 0 141.421-16.047 188.556-28.94l3.035-.83c-2.8 2.109-5.644 4.265-8.543 6.464-39.387 29.877-88.403 67.06-152.966 76.123-5.47.768-9.281 5.824-8.514 11.293.702 4.998 4.984 8.611 9.891 8.611.463 0 .932-.032 1.402-.099 69.721-9.787 121.039-48.715 162.273-79.994 9.002-6.829 17.472-13.251 25.451-18.846C431.865 285.94 363.091 374 256 374z"/></svg>