<svg xmlns="http://www.w3.org/2000/svg" viewBox="0 0 512 512"><path fill="#2EC0F9" d="M426.717 451.165c-.454-2.52-4.561-24.545-13.182-46.92-13.212-34.284-30.194-51.668-50.475-51.668-24.618 0-36.362 25.763-47.718 50.68-10.043 22.034-20.426 44.82-37.233 44.82h-47.306c-42.814 0-55.905-26.727-68.563-52.574-9.068-18.513-18.444-37.655-39.63-37.655-16.386 0-30.588 16.08-43.422 49.159-8.267 21.308-13.09 42.266-13.506 44.103-3.893 15.941-1.009 31.131 8.126 42.783C82.961 505.57 97.065 512 113.52 512h264.016c16.403 0 30.61-6.427 40.004-18.096 9.354-11.618 12.61-26.79 9.177-42.739zm-24.756 30.199c-5.522 6.86-14.197 10.637-24.425 10.637H113.521c-10.178 0-18.691-3.71-23.971-10.447-5.28-6.736-6.851-15.887-4.421-25.767l.047-.199c.046-.207 4.724-20.894 12.66-41.347 13.722-35.372 23.684-36.393 24.775-36.393 8.308 0 13.395 9.559 21.669 26.453 13.183 26.914 31.237 63.775 86.525 63.775h47.305c29.67 0 43.357-30.03 55.433-56.526 8.734-19.161 17.765-38.975 29.519-38.975 22.261 0 39.255 55.424 43.996 82.261.023.135.05.269.079.403 2.182 9.991.345 19.268-5.176 26.125z"/><path fill="#2EC0F9" d="M379.586 47.164c-37.862-10.144-62.992 9.612-79.621 22.686-6.054 4.762-14.335 11.288-17.291 10.497-2.94-.788-6.862-10.584-9.726-17.736-7.862-19.635-19.744-49.311-57.611-59.456-49.157-13.172-99.871 16.106-113.044 65.266-6.402 23.892-9.148 44.921 13.957 98.196 9.34 21.535 7.134 58.229 5.187 90.603-1.27 21.096-2.468 41.024-.761 56.969.839 7.832 3.39 31.662 23.336 37.007 27.039 7.245 46.475-25.704 63.623-54.775 6.06-10.273 11.783-19.975 17.214-26.998 6.31-8.158 9.315-8.757 9.506-8.794.257.213 2.5 2.348 3.859 12.375 1.192 8.798 1.298 20.063 1.409 31.988.316 33.749.674 72.003 27.712 79.248 2.372.636 4.663.922 6.864.922 16.309 0 27.759-15.697 31.849-21.305 9.451-12.956 18.377-30.812 27.826-49.717 14.501-29.01 30.936-61.891 49.792-75.871 46.648-34.585 54.785-54.17 61.185-78.062 13.173-49.158-16.104-99.87-65.265-113.043zm45.948 107.869c-4.898 18.281-9.129 34.068-53.779 67.173-22.696 16.828-39.51 50.465-55.77 82.995-13.411 26.828-29.956 59.932-41.883 59.93a6.2 6.2 0 0 1-1.592-.208c-12.359-3.311-12.665-36.144-12.89-60.117-.128-13.673-.249-26.587-1.986-37.134-.916-5.567-3.706-22.506-18.092-26.36a19.968 19.968 0 0 0-5.192-.693c-11.784 0-20.523 10.656-23.654 14.476-6.778 8.266-13.341 19.39-20.287 31.167-12.181 20.648-28.856 48.93-41.222 45.618-12.013-3.219-9.671-42.164-7.788-73.457 2.183-36.302 4.44-73.839-6.801-99.76-22.116-50.995-17.886-66.782-12.988-85.063 10.319-38.509 50.045-61.441 88.551-51.125 28.197 7.555 36.709 28.815 44.22 47.573 5.403 13.495 10.507 26.24 23.116 29.619 12.61 3.381 23.401-5.108 34.828-14.093 15.884-12.489 33.883-26.645 62.083-19.09 38.51 10.318 61.443 50.041 51.126 88.549z"/><path fill="#2EC0F9" d="M169.993 133.663l-.07-.163c-2.198-5.067-8.069-7.351-13.136-5.154-5.067 2.197-7.374 8.128-5.177 13.194a10.001 10.001 0 0 0 13.131 5.253c5.076-2.175 7.428-8.054 5.252-13.13zm40.125-85.895c-28.789-7.714-58.474 9.431-66.184 38.212-1.874 6.995-3.442 14.122-2.067 24.37.673 5.023 4.966 8.671 9.898 8.671.443 0 .891-.029 1.344-.091 5.474-.734 9.315-5.767 8.581-11.241-.89-6.632.041-10.853 1.563-16.535 4.858-18.13 23.56-28.924 41.69-24.069 5.34 1.431 10.817-1.737 12.247-7.071 1.429-5.333-1.737-10.817-7.072-12.246z"/></svg>